<svg width="20" height="18" viewBox="0 0 20 18" fill="none" xmlns="http://www.w3.org/2000/svg">
<path d="M0 16.0714C0 15.2913 0.486978 14.5882 1.23438 14.2894C1.98178 13.9914 2.84202 14.1563 3.41407 14.7079C3.98611 15.2595 4.15713 16.089 3.84809 16.8097C3.5382 17.5304 2.80902 18 2 18C0.895822 18 0 17.1362 0 16.0714ZM2 3.85718C2.80902 3.85718 3.5382 3.38759 3.84809 2.66689C4.15711 1.94618 3.98611 1.11666 3.41407 0.565051C2.84202 0.0134378 1.98178 -0.151476 1.23438 0.146531C0.486978 0.445351 0 1.14849 0 1.92861C0 2.99335 0.895822 3.85718 2 3.85718ZM2 10.9286C2.80902 10.9286 3.5382 10.459 3.84809 9.7383C4.15711 9.01759 3.98611 8.18807 3.41407 7.63646C2.84202 7.08485 1.98178 6.91993 1.23438 7.21794C0.486978 7.51676 0 8.2199 0 9.00002C0 10.0648 0.895822 10.9286 2 10.9286ZM8.66667 3.21432H18.6667C19.4028 3.21432 20 2.63843 20 1.92861C20 1.21879 19.4028 0.642901 18.6667 0.642901H8.66667C7.93056 0.642901 7.33333 1.21879 7.33333 1.92861C7.33333 2.63843 7.93056 3.21432 8.66667 3.21432ZM8.66667 10.2857H18.6667C19.4028 10.2857 20 9.70984 20 9.00002C20 8.2902 19.4028 7.71431 18.6667 7.71431H8.66667C7.93056 7.71431 7.33333 8.2902 7.33333 9.00002C7.33333 9.70984 7.93056 10.2857 8.66667 10.2857ZM8.66667 17.3571H18.6667C19.4028 17.3571 20 16.7813 20 16.0714C20 15.3616 19.4028 14.7857 18.6667 14.7857H8.66667C7.93056 14.7857 7.33333 15.3616 7.33333 16.0714C7.33333 16.7813 7.93056 17.3571 8.66667 17.3571Z" fill="white"/>
</svg>
