<svg width="20" height="20" viewBox="0 0 20 20" fill="none" xmlns="http://www.w3.org/2000/svg">
<path d="M19.4641 16.9315L12.5216 9.98909L19.4641 3.04667C20.1496 2.36116 20.1496 1.19965 19.4641 0.514134C18.7785 -0.171378 17.617 -0.171378 16.9315 0.514134L9.98909 7.45656L3.04667 0.514134C2.36116 -0.171378 1.19965 -0.171378 0.514134 0.514134C-0.171378 1.19965 -0.171378 2.36116 0.514134 3.04667L7.45656 9.98909L0.514134 16.9315C-0.171378 17.617 -0.171378 18.7785 0.514134 19.4641C1.19965 20.1496 2.36116 20.1496 3.04667 19.4641L9.98909 12.5216L16.9315 19.4641C17.617 20.1496 18.7785 20.1496 19.4641 19.4641C20.1786 18.7785 20.1786 17.6461 19.4641 16.9315Z" fill="#3C3C89"/>
</svg>
