<svg width="26" height="20" viewBox="0 0 26 20" fill="none" xmlns="http://www.w3.org/2000/svg">
<path d="M2.75883 15.8023C5.11303 13.1435 8.33828 11.2472 11.9738 10.5604C12.1021 10.5226 12.2303 10.5099 12.3573 10.5099C13.1255 10.5099 13.7401 11.121 13.7401 11.8848V13.5134L26 6.75669L13.7401 0V1.33569C13.7401 1.95936 13.3173 2.51865 12.6912 2.67139C11.7821 2.88727 10.9123 3.18016 10.0932 3.53619C6.36896 5.11428 3.48919 7.95102 1.76211 11.361C0.444065 13.9945 -0.183216 16.9853 0.0466385 20C0.724695 18.4598 1.64658 17.0483 2.7602 15.8011L2.75883 15.8023Z" fill="white"/>
</svg>
