<svg width="372" height="323" viewBox="0 0 372 323" fill="none" xmlns="http://www.w3.org/2000/svg">
<path d="M45.0841 279.564L71.9009 199.508C87.6754 151.79 90.8303 132.466 90.8303 91.4522V59.9031C90.8303 17.7061 78.605 0.354156 46.6616 0.354156C15.9012 0.354156 0.915405 17.7061 0.915405 59.9031C0.915405 74.1001 2.49286 99.7338 3.67595 117.875H43.1123C41.9292 96.5789 40.3518 67.7903 40.3518 47.2834C40.3518 40.1849 42.3236 37.8187 45.8729 37.8187C49.4221 37.8187 51.394 40.1849 51.394 47.2834V95.3958C51.394 128.128 49.8165 145.086 36.0138 185.705L0.915405 289.423V319H93.1965V279.564H45.0841Z" fill="white"/>
<path d="M149.113 322.155C179.873 322.155 194.859 304.803 194.859 262.606V59.9031C194.859 17.7061 182.634 0.354156 150.69 0.354156C119.93 0.354156 104.944 17.7061 104.944 59.9031V262.606C104.944 304.803 117.17 322.155 149.113 322.155ZM149.902 284.69C146.352 284.69 144.381 282.324 144.381 275.226V47.2834C144.381 40.1849 146.352 37.8187 149.902 37.8187C153.451 37.8187 155.423 40.1849 155.423 47.2834V275.226C155.423 282.324 153.451 284.69 149.902 284.69Z" fill="white"/>
<path d="M252.664 279.564L279.481 199.508C295.255 151.79 298.41 132.466 298.41 91.4522V59.9031C298.41 17.7061 286.185 0.354156 254.242 0.354156C223.481 0.354156 208.495 17.7061 208.495 59.9031C208.495 74.1001 210.073 99.7338 211.256 117.875H250.692C249.509 96.5789 247.932 67.7903 247.932 47.2834C247.932 40.1849 249.904 37.8187 253.453 37.8187C257.002 37.8187 258.974 40.1849 258.974 47.2834V95.3958C258.974 128.128 257.397 145.086 243.594 185.705L208.495 289.423V319H300.777V279.564H252.664Z" fill="white"/>
<path d="M332.242 3.50907V33.8751H306.214V71.3396H332.242V319H371.679V3.50907H332.242Z" fill="white"/>
</svg>
